<?xml version="1.0" standalone="no"?><!DOCTYPE svg PUBLIC "-//W3C//DTD SVG 1.1//EN" "http://www.w3.org/Graphics/SVG/1.1/DTD/svg11.dtd"><svg t="1750478998184" class="icon" viewBox="0 0 1160 1024" version="1.1" xmlns="http://www.w3.org/2000/svg" p-id="1488" xmlns:xlink="http://www.w3.org/1999/xlink" width="226.5625" height="200"><path d="M100.9664 505.4464c-6.485333 4.778667-11.8784 10.4448-19.182933 20.8896-13.7216 19.592533-5.597867 55.637333 17.544533 82.875733 1.160533 1.365333 44.6464 55.842133 65.877333 81.1008a1689.6 1689.6 0 0 0 124.450134 133.597867c9.762133 9.352533 19.592533 18.500267 29.4912 27.511467a422.024533 422.024533 0 0 0 172.168533 91.9552c93.047467 22.9376 180.292267 11.332267 244.3264-41.7792 75.229867-62.395733 106.632533-129.024 115.575467-245.9648 10.376533-136.533333-18.773333-201.386667-115.234134-314.9824-28.194133-33.245867-52.4288-52.497067-66.423466-53.8624a40.96 40.96 0 0 0-43.8272 50.244266c2.389333 10.0352 18.500267 33.860267 47.581866 67.1744l-55.227733 43.690667A86132.053333 86132.053333 0 0 1 394.581333 186.231467c-30.037333-35.362133-42.052267-46.421333-53.4528-50.7904a40.277333 40.277333 0 0 0-39.3216 6.144c-9.352533 7.714133-14.199467 15.701333-15.36 25.1904L493.1584 410.282667a33.3824 33.3824 0 0 1-5.051733 48.401066 37.137067 37.137067 0 0 1-50.5856-5.188266L225.553067 203.844267c-17.681067-11.946667-30.993067-10.6496-49.629867 4.778666-11.946667 9.898667-19.114667 27.784533-16.042667 34.816 1.706667 3.822933 7.7824 12.424533 17.749334 24.917334l32.290133 37.956266 0.4096 0.477867 162.338133 191.146667a33.3824 33.3824 0 0 1-5.12 48.469333 37.137067 37.137067 0 0 1-50.517333-5.256533L142.336 335.530667a867.396267 867.396267 0 0 1-23.005867-27.170134l-0.2048-0.2048c0.6144 0.8192 0.546133 0.955733-0.273066 1.092267 1.2288-0.2048-9.898667 8.465067-19.387734 17.476267a33.723733 33.723733 0 0 0-11.605333 30.72c1.501867 12.629333 8.669867 28.535467 20.2752 45.6704a258.2528 258.2528 0 0 0 16.725333 21.845333l6.485334 7.645867 0.887466 1.024 2.389334 2.730666c0.682667 0.682667 0.682667 0.8192 1.570133 1.979734l141.789867 166.980266a33.3824 33.3824 0 0 1-5.051734 48.3328 37.137067 37.137067 0 0 1-50.5856-5.188266l-121.514666-143.018667z m575.351467-287.1296c39.936 3.959467 75.229867 31.9488 115.3024 79.189333 107.042133 126.020267 143.223467 206.6432 131.2768 363.656534-10.24 134.144-49.629867 217.770667-139.946667 292.6592-83.899733 69.495467-195.106133 84.241067-309.0432 56.183466a495.274667 495.274667 0 0 1-203.844267-108.7488c-10.4448-9.4208-20.821333-19.0464-31.061333-28.8768a1759.163733 1759.163733 0 0 1-129.706667-139.127466c-21.981867-26.2144-65.3312-80.554667-65.536-80.827734C2.594133 604.091733-12.629333 536.917333 21.9136 487.697067c11.332267-16.110933 21.7088-27.101867 33.928533-36.2496a307.6096 307.6096 0 0 1-7.9872-11.264c-17.134933-25.3952-28.535467-50.517333-31.402666-75.707734a99.396267 99.396267 0 0 1 32.290133-86.903466c15.701333-14.9504 27.101867-24.576 38.912-30.378667-3.413333-33.109333 14.062933-68.471467 40.891733-90.7264 29.764267-24.712533 62.464-33.928533 94.685867-27.4432a114.2784 114.2784 0 0 1 144.042667-57.480533c27.0336 10.24 44.987733 26.8288 82.875733 71.4752 28.808533 33.928533 67.037867 78.779733 114.688 134.485333 20.0704-38.229333 62.805333-63.965867 111.4112-59.1872z" fill="#484848" p-id="1489"></path><path d="M578.696533 426.530133a68.266667 68.266667 0 1 0 136.533334 0 68.266667 68.266667 0 1 0-136.533334 0Z" fill="#484848" p-id="1490"></path></svg>